<?xml version="1.0" encoding="utf-8"?>
<!-- Svg Vector Icons : http://www.onlinewebfonts.com/icon -->
<!DOCTYPE svg PUBLIC "-//W3C//DTD SVG 1.1//EN" "http://www.w3.org/Graphics/SVG/1.1/DTD/svg11.dtd">
<svg version="1.1" xmlns="http://www.w3.org/2000/svg" xmlns:xlink="http://www.w3.org/1999/xlink" x="0px" y="0px" viewBox="0 0 1000 1000" enable-background="new 0 0 1000 1000" xml:space="preserve">
<metadata> Svg Vector Icons : http://www.onlinewebfonts.com/icon </metadata>
<g><path d="M958.6,434.1L587.1,47.7c-23.2-24-54-37.2-87.1-37.2c-33.1,0-63.9,13.2-87,37.2L41.4,434.1C3.1,474,8,508.5,14.3,522.9c4.5,10.2,19.8,38.3,63.7,38.3h54.5v297.3c0,67.5,48.5,131,117.4,131h62.5h95.7v-69.8V674.9c0-33.7-5.1-52.6,29.4-52.6H500h62.5c34.5,0,29.4,18.8,29.4,52.6v244.8v69.8h95.6H750c68.9,0,117.4-63.5,117.4-131V561.2H922c43.9,0,59.1-28.1,63.7-38.3C992,508.5,996.9,474,958.6,434.1L958.6,434.1z M922,500H875h-31.2h-37.5v358.5c0,33.7-21.8,69.8-56.3,69.8h-96.9V674.9c0-67.5-21.7-113.7-90.7-113.7H500h-62.5c-69,0-90.6,46.2-90.6,113.7v253.4H250c-34.4,0-56.2-36.1-56.2-69.8V500h-37.6H125H78.1c-1.1,0-2-4.2-3-4.3c2.2-3.7,5.8-13.1,11.8-19.4L458.5,90.2c11.1-11.5,26.8-18.6,41.9-18.5c15.2-0.1,29.9,7,41,18.5L913,476.3c6.1,6.3,9.7,15.7,11.8,19.4C924,495.8,923,500,922,500L922,500z"/></g>
</svg>