<?xml version="1.0" encoding="UTF-8" standalone="no"?>
<!-- Created with Inkscape (http://www.inkscape.org/) -->

<svg
   width="210mm"
   height="210mm"
   viewBox="0 0 210 210"
   version="1.1"
   id="svg221"
   inkscape:version="1.2.1 (9c6d41e410, 2022-07-14, custom)"
   sodipodi:docname="logo-1.svg"
   xmlns:inkscape="http://www.inkscape.org/namespaces/inkscape"
   xmlns:sodipodi="http://sodipodi.sourceforge.net/DTD/sodipodi-0.dtd"
   xmlns="http://www.w3.org/2000/svg"
   xmlns:svg="http://www.w3.org/2000/svg">
  <sodipodi:namedview
     id="namedview223"
     pagecolor="#ffffff"
     inkscape:showpageshadow="2"
     inkscape:pageopacity="0.0"
     inkscape:pagecheckerboard="0"
     inkscape:deskcolor="#d1d1d1"
     inkscape:document-units="mm"
     showgrid="false"
     inkscape:zoom="0.76257015"
     inkscape:cx="535.68842"
     inkscape:cy="441.92656"
     inkscape:window-width="1920"
     inkscape:window-height="1015"
     inkscape:window-x="0"
     inkscape:window-y="0"
     inkscape:window-maximized="1"
     inkscape:current-layer="svg221"
     bordercolor="#000000"
     borderopacity="0.25" />
  <defs
     id="defs218" />
  <path
     d="m 42.146762,0.00930186 c 0,0 8.824776,45.07307914 16.34273,50.80252414 h -6.540053 c 0,0 -2.936657,-41.8579837 -46.3878835,-45.7868342 0,0 -21.5729995,22.5381632 20.2572855,80.8415102 0.0029,0 -7.132726,20.173088 7.562409,35.833368 7.094197,7.56245 19.276422,14.07368 39.818192,16.75349 20.912176,17.52905 32.347638,22.17487 31.352028,60.81119 0,0 25.49345,-10.01508 5.24497,-51.51293 0,0 38.22094,8.9445 47.04881,62.24838 0,0 28.74118,-15.74463 -32.68556,-82.99254 0,0 14.09661,-33.627149 39.4064,-2.86139 0,0 4.38569,2.86139 8.30914,1.07376 0,0 11.75544,-22.89497 16.65982,15.37806 0,0 5.55321,1.07391 6.86302,7.87073 0,0 31.03786,-34.34097 2.61069,-84.783401 -28.42721,-50.442407 -40.85239,-33.98082 -40.85239,-33.98082 l -10.78062,10.732143 c 0,0 0.65192,-10.917075 -0.486,-12.34781 0,0 -28.10116,-0.713747 -55.879375,11.80602 0,0 -11.432504,-40.59919674 -47.863613,-39.88545014 z"
     style="fill:#000000;fill-opacity:1;stroke:none;stroke-width:0;stroke-linecap:butt;stroke-linejoin:miter;stroke-miterlimit:10;stroke-dasharray:none;stroke-opacity:1"
     id="path44" />
</svg>
