<?xml version="1.0" encoding="UTF-8" standalone="no"?>
<!-- Created with Inkscape (http://www.inkscape.org/) -->

<svg
   width="210mm"
   height="210mm"
   viewBox="0 0 210 210"
   version="1.1"
   id="svg221"
   inkscape:version="1.2.1 (9c6d41e410, 2022-07-14, custom)"
   sodipodi:docname="drawing.svg"
   xmlns:inkscape="http://www.inkscape.org/namespaces/inkscape"
   xmlns:sodipodi="http://sodipodi.sourceforge.net/DTD/sodipodi-0.dtd"
   xmlns="http://www.w3.org/2000/svg"
   xmlns:svg="http://www.w3.org/2000/svg">
  <sodipodi:namedview
     id="namedview223"
     pagecolor="#ffffff"
     bordercolor="#000000"
     borderopacity="0.25"
     inkscape:showpageshadow="2"
     inkscape:pageopacity="0.0"
     inkscape:pagecheckerboard="0"
     inkscape:deskcolor="#d1d1d1"
     inkscape:document-units="mm"
     showgrid="false"
     inkscape:zoom="0.76257015"
     inkscape:cx="397.99617"
     inkscape:cy="338.32953"
     inkscape:window-width="1920"
     inkscape:window-height="1015"
     inkscape:window-x="0"
     inkscape:window-y="0"
     inkscape:window-maximized="1"
     inkscape:current-layer="layer1" />
  <defs
     id="defs218" />
  <g
     inkscape:label="Layer 1"
     inkscape:groupmode="layer"
     id="layer1">
    <g
       id="g42"
       transform="matrix(2.9222901,0,0,-3.1830493,43.024442,1.6004089)"
       style="fill:#280b0b">
      <path
         d="M 0,0 C 0,0 2.978,-13.893 5.515,-15.659 H 3.308 c 0,0 -0.991,12.902 -15.654,14.113 0,0 -7.28,-6.947 6.836,-24.918 10e-4,0 -2.407,-6.218 2.552,-11.045 2.394,-2.331 6.505,-4.338 13.437,-5.164 7.057,-5.403 10.916,-6.835 10.58,-18.744 0,0 8.603,3.087 1.77,15.878 0,0 12.898,-2.757 15.877,-19.187 0,0 9.699,4.853 -11.03,25.581 0,0 4.757,10.365 13.298,0.882 0,0 1.48,-0.882 2.804,-0.331 0,0 3.967,7.057 5.622,-4.74 0,0 1.874,-0.331 2.316,-2.426 0,0 10.474,10.585 0.881,26.133 -9.593,15.548 -13.786,10.474 -13.786,10.474 l -3.638,-3.308 c 0,0 0.22,3.365 -0.164,3.806 0,0 -9.483,0.22 -18.857,-3.639 0,0 -3.858,12.514 -16.152,12.294 z"
         style="fill:#280b0b;stroke:#ffffff;stroke-width:1;stroke-linecap:butt;stroke-linejoin:miter;stroke-miterlimit:10;stroke-dasharray:none;stroke-opacity:1"
         id="path44" />
    </g>
  </g>
</svg>
